<svg width="13" height="13" viewBox="0 0 13 13" fill="none" xmlns="http://www.w3.org/2000/svg">
  <path d="M4.4 1.9c-1.5 0-1.9.6-1.9 1.8v1.4c0 .8-.4 1.2-1 1.4.6.2 1 .6 1 1.4v1.4c0 1.2.4 1.8 1.9 1.8"
        stroke="#CED0D6" stroke-width="1" stroke-linecap="round" stroke-linejoin="round"/>
  <path d="M8.6 1.9c1.5 0 1.9.6 1.9 1.8v1.4c0 .8.4 1.2 1 1.4-.6.2-1 .6-1 1.4v1.4c0 1.2-.4 1.8-1.9 1.8"
        stroke="#CED0D6" stroke-width="1" stroke-linecap="round" stroke-linejoin="round"/>
  <rect x="4.6" y="3.9" width="3.8" height="1.1" rx=".55" fill="#CED0D6"/>
  <rect x="4.6" y="5.95" width="2.6" height="1.1" rx=".55" fill="#CED0D6"/>
  <rect x="4.6" y="8" width="1.5" height="1.1" rx=".55" fill="#CED0D6"/>
</svg>
